<svg xmlns="http://www.w3.org/2000/svg" xmlns:xlink="http://www.w3.org/1999/xlink" width="51" zoomAndPan="magnify" viewBox="0 0 38.25 37.499999" height="50" preserveAspectRatio="xMidYMid meet" version="1.0"><defs><clipPath id="f1c4375feb"><path d="M 0.652344 0.117188 L 36.882812 0.117188 L 36.882812 36.347656 L 0.652344 36.347656 Z M 0.652344 0.117188 " clip-rule="nonzero"/></clipPath><clipPath id="2611b7643a"><path d="M 18.769531 0.117188 C 8.765625 0.117188 0.652344 8.226562 0.652344 18.230469 C 0.652344 28.234375 8.765625 36.347656 18.769531 36.347656 C 28.773438 36.347656 36.882812 28.234375 36.882812 18.230469 C 36.882812 8.226562 28.773438 0.117188 18.769531 0.117188 Z M 18.769531 0.117188 " clip-rule="nonzero"/></clipPath><clipPath id="2983780f60"><path d="M 14 8.128906 L 24 8.128906 L 24 13 L 14 13 Z M 14 8.128906 " clip-rule="nonzero"/></clipPath><clipPath id="63ee359cdc"><path d="M 9.65625 13 L 28 13 L 28 27.988281 L 9.65625 27.988281 Z M 9.65625 13 " clip-rule="nonzero"/></clipPath></defs><g clip-path="url(#f1c4375feb)"><g clip-path="url(#2611b7643a)"><path fill="#7a69e9" d="M 0.652344 0.117188 L 36.882812 0.117188 L 36.882812 36.347656 L 0.652344 36.347656 Z M 0.652344 0.117188 " fill-opacity="1" fill-rule="nonzero"/></g></g><g clip-path="url(#2983780f60)"><path fill="#ffffff" d="M 16.871094 11.597656 C 16.785156 11.625 16.726562 11.652344 16.640625 11.652344 C 16.46875 11.652344 16.296875 11.566406 16.207031 11.398438 L 15.230469 9.636719 L 14.828125 9.804688 C 14.199219 10.058594 13.882812 10.757812 14.140625 11.398438 L 14.167969 11.484375 L 15.75 12.910156 C 17.789062 12.492188 19.914062 12.492188 21.925781 12.910156 L 23.503906 11.484375 L 23.535156 11.398438 C 23.792969 10.785156 23.476562 10.058594 22.84375 9.804688 L 22.355469 9.609375 L 21.410156 11.316406 C 21.324219 11.484375 21.148438 11.566406 20.976562 11.566406 C 20.890625 11.566406 20.835938 11.539062 20.746094 11.511719 C 20.519531 11.398438 20.433594 11.09375 20.546875 10.867188 L 21.695312 8.796875 C 21.464844 8.40625 21.035156 8.128906 20.519531 8.128906 L 17.15625 8.128906 C 16.609375 8.128906 16.152344 8.433594 15.921875 8.910156 L 17.070312 10.980469 C 17.1875 11.175781 17.097656 11.484375 16.871094 11.597656 Z M 16.871094 11.597656 " fill-opacity="1" fill-rule="nonzero"/></g><g clip-path="url(#63ee359cdc)"><path fill="#ffffff" d="M 22.039062 13.695312 C 19.972656 13.191406 17.761719 13.191406 15.664062 13.664062 C 13.824219 15.121094 10.40625 18.617188 9.890625 22.757812 C 9.6875 24.238281 10.003906 25.46875 10.835938 26.367188 C 11.582031 27.175781 12.589844 27.597656 13.421875 27.792969 C 18.164062 27.765625 20.316406 26.589844 22.242188 25.300781 C 22.472656 25.164062 22.757812 25.273438 22.902344 25.5 C 23.015625 25.722656 22.902344 25.945312 22.703125 26.140625 C 21.667969 27.121094 20.777344 27.652344 19.972656 27.988281 L 22.875 27.988281 C 23.015625 27.988281 25.429688 27.960938 26.867188 26.394531 C 27.699219 25.5 28.015625 24.265625 27.816406 22.785156 C 27.269531 18.644531 23.878906 15.148438 22.039062 13.695312 Z M 17.789062 19.652344 L 18.824219 19.847656 L 20.117188 20.097656 L 20.203125 20.128906 L 20.257812 20.15625 C 21.179688 20.601562 21.378906 21.132812 21.378906 21.5 L 21.378906 21.554688 C 21.378906 22.449219 20.519531 23.175781 19.425781 23.175781 L 19.425781 23.988281 L 18.449219 23.988281 L 18.449219 23.175781 L 18.25 23.175781 C 17.1875 23.175781 16.296875 22.449219 16.296875 21.554688 L 16.296875 21.191406 L 17.273438 21.191406 L 17.273438 21.554688 C 17.273438 21.917969 17.730469 22.226562 18.25 22.226562 L 19.425781 22.226562 C 19.945312 22.226562 20.402344 21.917969 20.402344 21.554688 L 20.402344 21.5 C 20.402344 21.414062 20.257812 21.246094 19.886719 21.023438 L 17.617188 20.574219 L 17.472656 20.546875 L 17.414062 20.519531 C 16.695312 20.15625 16.324219 19.707031 16.324219 19.203125 L 16.324219 19.148438 C 16.324219 18.253906 17.1875 17.527344 18.277344 17.527344 L 18.476562 17.527344 L 18.476562 16.769531 L 19.425781 16.769531 L 19.425781 17.527344 C 20.488281 17.527344 21.378906 18.253906 21.378906 19.148438 L 20.402344 19.148438 C 20.402344 18.785156 19.945312 18.476562 19.425781 18.476562 L 18.25 18.476562 C 17.730469 18.476562 17.273438 18.785156 17.273438 19.148438 L 17.273438 19.203125 C 17.273438 19.289062 17.386719 19.457031 17.789062 19.652344 Z M 17.789062 19.652344 " fill-opacity="1" fill-rule="nonzero"/></g></svg>